<svg xmlns="http://www.w3.org/2000/svg" viewBox="0 0 560 160" width="560" height="160">
  <!-- ====================================================
       LEFT: BP Icon inside a thin circle ring
  ==================================================== -->
  <circle cx="80" cy="80" r="72" fill="none" stroke="#5a5b5e" stroke-width="2"/>

  <!-- Pixel grid (spine of B) — 3 cols × 7 rows -->
  <rect x="42" y="42" width="5" height="5" rx="0.8" fill="#2196F3"/>
  <rect x="49" y="42" width="5" height="5" rx="0.8" fill="#2196F3"/>
  <rect x="56" y="42" width="5" height="5" rx="0.8" fill="#2196F3"/>

  <rect x="42" y="49" width="5" height="5" rx="0.8" fill="#2196F3"/>
  <rect x="49" y="49" width="5" height="5" rx="0.8" fill="#2196F3"/>
  <rect x="56" y="49" width="5" height="5" rx="0.8" fill="#2196F3"/>

  <rect x="42" y="56" width="5" height="5" rx="0.8" fill="#2196F3"/>
  <rect x="49" y="56" width="5" height="5" rx="0.8" fill="#2196F3"/>
  <rect x="56" y="56" width="5" height="5" rx="0.8" fill="#2196F3"/>

  <rect x="42" y="63" width="5" height="5" rx="0.8" fill="#2196F3"/>
  <rect x="49" y="63" width="5" height="5" rx="0.8" fill="#2196F3"/>
  <rect x="56" y="63" width="5" height="5" rx="0.8" fill="#2196F3"/>

  <rect x="42" y="70" width="5" height="5" rx="0.8" fill="#2196F3"/>
  <rect x="49" y="70" width="5" height="5" rx="0.8" fill="#2196F3"/>
  <rect x="56" y="70" width="5" height="5" rx="0.8" fill="#2196F3"/>

  <rect x="42" y="77" width="5" height="5" rx="0.8" fill="#2196F3"/>
  <rect x="49" y="77" width="5" height="5" rx="0.8" fill="#2196F3"/>
  <rect x="56" y="77" width="5" height="5" rx="0.8" fill="#2196F3"/>

  <rect x="42" y="84" width="5" height="5" rx="0.8" fill="#2196F3"/>
  <rect x="49" y="84" width="5" height="5" rx="0.8" fill="#2196F3"/>
  <rect x="56" y="84" width="5" height="5" rx="0.8" fill="#2196F3"/>

  <rect x="42" y="91" width="5" height="5" rx="0.8" fill="#2196F3"/>
  <rect x="49" y="91" width="5" height="5" rx="0.8" fill="#2196F3"/>
  <rect x="56" y="91" width="5" height="5" rx="0.8" fill="#2196F3"/>

  <rect x="42" y="98" width="5" height="5" rx="0.8" fill="#2196F3"/>
  <rect x="49" y="98" width="5" height="5" rx="0.8" fill="#2196F3"/>
  <rect x="56" y="98" width="5" height="5" rx="0.8" fill="#2196F3"/>

  <!-- Circuit traces fanning left -->
  <polyline points="42,45 32,40 18,33" fill="none" stroke="#2196F3" stroke-width="1.5" stroke-linecap="round" stroke-linejoin="round"/>
  <circle cx="18" cy="33" r="3" fill="#2196F3"/>

  <polyline points="42,52 30,52 18,46" fill="none" stroke="#2196F3" stroke-width="1.5" stroke-linecap="round" stroke-linejoin="round"/>
  <circle cx="18" cy="46" r="3" fill="#2196F3"/>

  <line x1="42" y1="67" x2="14" y2="67" stroke="#2196F3" stroke-width="1.5" stroke-linecap="round"/>
  <circle cx="14" cy="67" r="3" fill="#2196F3"/>

  <polyline points="42,80 30,80 18,86" fill="none" stroke="#2196F3" stroke-width="1.5" stroke-linecap="round" stroke-linejoin="round"/>
  <circle cx="18" cy="86" r="3" fill="#2196F3"/>

  <polyline points="42,95 30,95 18,101" fill="none" stroke="#2196F3" stroke-width="1.5" stroke-linecap="round" stroke-linejoin="round"/>
  <circle cx="18" cy="101" r="3" fill="#2196F3"/>

  <!-- B letter (blue) -->
  <text x="55" y="113" font-family="'Arial Black','Arial',sans-serif" font-weight="900" font-size="72" fill="#2196F3">B</text>
  <!-- P letter (dark gray) -->
  <text x="106" y="113" font-family="'Arial Black','Arial',sans-serif" font-weight="900" font-size="72" fill="#5a5b5e">P</text>

  <!-- ====================================================
       RIGHT: Wordmark text
  ==================================================== -->
  <!-- "Bit" in blue, "Pixel" in gray — same line, large -->
  <text x="174" y="90" font-family="'Arial','Helvetica Neue',sans-serif" font-weight="700" font-size="44" fill="#2196F3">Bit</text>
  <text x="228" y="90" font-family="'Arial','Helvetica Neue',sans-serif" font-weight="700" font-size="44" fill="#5a5b5e">Pixel</text>

  <!-- "Solutions Pvt. Ltd." below in gray -->
  <text x="174" y="120" font-family="'Arial','Helvetica Neue',sans-serif" font-weight="500" font-size="22" fill="#5a5b5e" letter-spacing="0.5">Solutions Pvt. Ltd.</text>
</svg>
